<?xml version="1.0" encoding="UTF-8" standalone="no"?>
<svg
   xmlns:dc="http://purl.org/dc/elements/1.1/"
   xmlns:cc="http://creativecommons.org/ns#"
   xmlns:rdf="http://www.w3.org/1999/02/22-rdf-syntax-ns#"
   xmlns:svg="http://www.w3.org/2000/svg"
   xmlns="http://www.w3.org/2000/svg"
   xml:space="preserve"
   style="enable-background:new 0 0 487.622 487.622;"
   viewBox="0 0 487.622 487.622"
   y="0px"
   x="0px"
   id="Capa_1"
   version="1.1"><metadata
     id="metadata3466"><rdf:RDF><cc:Work
         rdf:about=""><dc:format>image/svg+xml</dc:format><dc:type
           rdf:resource="http://purl.org/dc/dcmitype/StillImage" /><dc:title></dc:title></cc:Work></rdf:RDF></metadata><defs
     id="defs3464" /><g
     transform="matrix(-1,0,0,-1,487.62201,487.62201)"
     id="g3422"><g
       id="g3424"><circle
         id="circle3426"
         r="243.811"
         cy="243.811"
         cx="243.811"
         style="fill:#65b3ad" /><path
         id="path3428"
         d="M 477.946,311.989 369.499,145.983 223.811,119.432 140.75,186.811 121.699,346.058 227.491,487.065 c 5.396,0.357 10.834,0.557 16.319,0.557 110.985,0 204.639,-74.165 234.136,-175.633 z"
         style="opacity:0.37000002;fill:#56a49e;enable-background:new" /><path
         id="path3430"
         d="m 243.811,84.54 c -87.964,0 -159.271,71.308 -159.271,159.271 0,87.963 71.307,159.271 159.271,159.271 87.964,0 159.271,-71.307 159.271,-159.271 0,-87.964 -71.307,-159.271 -159.271,-159.271 z m 9.925,247.773 -64.812,0 76.963,-88.502 -76.963,-88.502 64.812,0 76.963,88.502 -76.963,88.502 z"
         style="fill:#ffffff" /></g></g><g
     id="g3432" /><g
     id="g3434" /><g
     id="g3436" /><g
     id="g3438" /><g
     id="g3440" /><g
     id="g3442" /><g
     id="g3444" /><g
     id="g3446" /><g
     id="g3448" /><g
     id="g3450" /><g
     id="g3452" /><g
     id="g3454" /><g
     id="g3456" /><g
     id="g3458" /><g
     id="g3460" /></svg>